<svg width="66" height="46" viewBox="0 0 66 46" fill="none" xmlns="http://www.w3.org/2000/svg">
<path d="M35.9059 20.8897H29.2679V14.9245H35.9059V20.8897ZM35.9059 0.373047H29.2679V6.46878H35.9059V0.373047ZM43.7591 14.9144H37.1211V20.8796H43.7591V14.9144ZM28.0628 7.67387H21.4248V13.7094H28.0628V7.67387ZM35.9059 7.67387H29.2679V13.7094H35.9059V7.67387ZM63.7033 17.7163C62.2572 16.7422 58.9231 16.3907 56.3623 16.8727C56.0309 14.4625 54.6852 12.3637 52.2349 10.4757L50.8289 9.54176L49.895 10.9477C48.0472 13.7395 47.5451 18.3389 49.5234 21.3717C48.6497 21.8437 46.9325 22.4864 44.6629 22.4462H1.00858C0.13489 27.5478 1.59104 34.1758 5.42724 38.725C9.15297 43.1336 14.7365 45.373 22.0374 45.373C37.8441 45.373 49.5435 38.0923 55.0166 24.8665C57.1657 24.9066 61.8053 24.8765 64.1853 20.3273C64.336 20.0762 64.8481 19.0017 65.0389 18.61L63.7033 17.7163ZM12.3766 14.9144H5.74859V20.8796H12.3866V14.9144H12.3766ZM20.2197 14.9144H13.5817V20.8796H20.2197V14.9144ZM28.0628 14.9144H21.4248V20.8796H28.0628V14.9144ZM20.2197 7.67387H13.5817V13.7094H20.2197V7.67387Z" fill="#212121"/>
</svg>
