<svg width="31" height="45" viewBox="0 0 31 45" fill="none" xmlns="http://www.w3.org/2000/svg">
<path d="M22.5088 15.0029C24.4983 15.0029 26.4063 14.2126 27.8131 12.8058C29.2199 11.399 30.0103 9.49098 30.0103 7.50146C30.0103 5.51195 29.2199 3.60393 27.8131 2.19713C26.4063 0.790331 24.4983 0 22.5088 0L7.50586 0C5.51751 0 3.61061 0.789868 2.20463 2.19584C0.798659 3.60181 0.0087911 5.50872 0.0087911 7.49707C0.0087911 9.48542 0.798659 11.3923 2.20463 12.7983C3.61061 14.2043 5.51751 14.9941 7.50586 14.9941C5.51635 14.9941 3.60832 15.7845 2.20152 17.1913C0.794727 18.5981 0.00439664 20.5061 0.00439664 22.4956C0.00439664 24.4851 0.794727 26.3931 2.20152 27.7999C3.60832 29.2067 5.51635 29.9971 7.50586 29.9971C6.02221 29.9962 4.57162 30.4353 3.33753 31.2589C2.10344 32.0824 1.14127 33.2534 0.572701 34.6238C0.00413022 35.9942 -0.145307 37.5024 0.143286 38.9577C0.431879 40.413 1.14554 41.75 2.19403 42.7998C3.24251 43.8495 4.57872 44.5647 6.03369 44.855C7.48867 45.1453 8.99705 44.9976 10.3681 44.4307C11.7391 43.8637 12.9113 42.9029 13.7363 41.6698C14.5613 40.4367 15.0021 38.9866 15.0029 37.5029V15.0029H22.5088ZM22.5088 15.0029C21.026 15.0029 19.5765 15.4426 18.3436 16.2664C17.1108 17.0902 16.1498 18.2611 15.5824 19.631C15.015 21.0009 14.8665 22.5083 15.1558 23.9626C15.4451 25.4169 16.1591 26.7527 17.2076 27.8012C18.256 28.8497 19.5919 29.5637 21.0462 29.853C22.5005 30.1423 24.0079 29.9938 25.3778 29.4264C26.7477 28.859 27.9186 27.898 28.7424 26.6651C29.5662 25.4323 30.0059 23.9828 30.0059 22.5C30.0056 20.5117 29.2157 18.605 27.8098 17.199C26.4038 15.7931 24.4971 15.0032 22.5088 15.0029Z" fill="#212121"/>
</svg>
