<svg width="41" height="40" viewBox="0 0 41 40" fill="none" xmlns="http://www.w3.org/2000/svg">
<path d="M13.5645 31.8976C13.5645 32.0611 13.3764 32.1919 13.1393 32.1919C12.8695 32.2165 12.6814 32.0856 12.6814 31.8976C12.6814 31.7341 12.8695 31.6032 13.1066 31.6032C13.3519 31.5787 13.5645 31.7095 13.5645 31.8976ZM11.0217 31.5297C10.9644 31.6932 11.1279 31.8812 11.3732 31.9303C11.5858 32.0121 11.8311 31.9303 11.8802 31.7668C11.9292 31.6032 11.7739 31.4152 11.5286 31.3416C11.316 31.2844 11.0789 31.3661 11.0217 31.5297ZM14.6356 31.3907C14.3985 31.4479 14.2349 31.6032 14.2595 31.7913C14.284 31.9548 14.4966 32.0611 14.7419 32.0039C14.979 31.9466 15.1425 31.7913 15.118 31.6278C15.0934 31.4724 14.8727 31.3661 14.6356 31.3907ZM20.0156 0.059082C8.67505 0.059082 0 8.66872 0 20.0093C0 29.0768 5.70706 36.8361 13.8588 39.567C14.9054 39.755 15.2733 39.1091 15.2733 38.5776C15.2733 38.0707 15.2488 35.2744 15.2488 33.5574C15.2488 33.5574 9.52539 34.7838 8.32347 31.1208C8.32347 31.1208 7.39137 28.7415 6.05046 28.1283C6.05046 28.1283 4.17809 26.8446 6.18128 26.8692C6.18128 26.8692 8.21718 27.0327 9.33733 28.9787C11.1279 32.1347 14.1286 31.2271 15.2979 30.6875C15.4859 29.3793 16.0174 28.4717 16.6061 27.9321C12.0355 27.4252 7.42408 26.7629 7.42408 18.8973C7.42408 16.6488 8.04548 15.5205 9.35369 14.0814C9.1411 13.55 8.44612 11.3587 9.56627 8.52973C11.2751 7.99827 15.2079 10.7373 15.2079 10.7373C16.8432 10.2795 18.6011 10.0423 20.3426 10.0423C22.0842 10.0423 23.8421 10.2795 25.4773 10.7373C25.4773 10.7373 29.4101 7.99009 31.119 8.52973C32.2391 11.3669 31.5442 13.55 31.3316 14.0814C32.6398 15.5286 33.4411 16.657 33.4411 18.8973C33.4411 26.7874 28.6252 27.417 24.0547 27.9321C24.8069 28.578 25.4446 29.8045 25.4446 31.7259C25.4446 34.4813 25.4201 37.8908 25.4201 38.5613C25.4201 39.0927 25.7962 39.7387 26.8346 39.5506C35.0109 36.8361 40.5544 29.0768 40.5544 20.0093C40.5544 8.66872 31.3561 0.059082 20.0156 0.059082ZM7.94736 28.2591C7.84107 28.3409 7.8656 28.529 8.0046 28.6843C8.13542 28.8151 8.32347 28.8724 8.42976 28.7661C8.53606 28.6843 8.51153 28.4962 8.37253 28.3409C8.24171 28.2101 8.05365 28.1528 7.94736 28.2591ZM7.06432 27.5969C7.00709 27.7031 7.08885 27.834 7.25238 27.9157C7.3832 27.9975 7.54672 27.973 7.60396 27.8585C7.66119 27.7522 7.57943 27.6214 7.4159 27.5396C7.25238 27.4906 7.12156 27.5151 7.06432 27.5969ZM9.71344 30.5076C9.58262 30.6139 9.63168 30.8592 9.81974 31.0145C10.0078 31.2026 10.2449 31.2271 10.3512 31.0963C10.4575 30.99 10.4084 30.7447 10.2449 30.5894C10.065 30.4013 9.81974 30.3768 9.71344 30.5076ZM8.78135 29.3057C8.65052 29.3875 8.65052 29.6 8.78135 29.7881C8.91217 29.9762 9.13293 30.0579 9.23922 29.9762C9.37004 29.8699 9.37004 29.6573 9.23922 29.4692C9.12475 29.2812 8.91217 29.1994 8.78135 29.3057Z" fill="#212121"/>
</svg>
