<svg width="281" height="71" viewBox="0 0 281 71" fill="none" xmlns="http://www.w3.org/2000/svg">
<mask id="mask0_428_558" style="mask-type:luminance" maskUnits="userSpaceOnUse" x="0" y="0" width="281" height="71">
<path d="M281 0H0V70.25H281V0Z" fill="white"/>
</mask>
<g mask="url(#mask0_428_558)">
<path fill-rule="evenodd" clip-rule="evenodd" d="M226.898 2.49691C226.898 3.8759 225.768 4.99381 224.374 4.99381C222.982 4.99381 221.852 3.8759 221.852 2.49691C221.852 1.1179 222.982 0 224.374 0C225.768 0 226.898 1.1179 226.898 2.49691ZM73.0665 0.096185H68.9278V33.065H73.0665V0.096185ZM96.7646 19.9312V33.065H100.668V19.6867C100.668 11.727 96.3394 8.76121 90.8643 8.76121C86.7703 8.76121 84.2959 10.4565 82.8706 12.2962L82.3482 9.04577H78.9708V33.0689H82.8706V21.0574C82.8706 15.6427 85.6324 12.3002 90.2003 12.3002C94.4361 12.3002 96.7646 14.9374 96.7646 19.9312ZM123.459 33.065V19.9232L123.463 19.9312C123.463 14.9374 121.135 12.3002 116.899 12.3002C112.331 12.3002 109.569 15.6427 109.569 21.0574V33.0689H105.666V9.04577H109.043L109.565 12.2962C110.991 10.4565 113.465 8.76121 117.559 8.76121C123.034 8.76121 127.363 11.727 127.363 19.6867V33.065H123.459ZM143.25 8.76121C136.159 8.76121 131.21 13.755 131.21 21.0534C131.21 28.3516 136.159 33.3456 143.25 33.3456C150.341 33.3456 155.289 28.3516 155.289 21.0534C155.289 13.755 150.341 8.76121 143.25 8.76121ZM143.25 29.9067C138.443 29.9067 135.207 26.1875 135.207 21.0534C135.207 15.9192 138.443 12.2 143.25 12.2C148.056 12.2 151.292 15.9192 151.292 21.0534C151.292 26.1875 148.056 29.9067 143.25 29.9067ZM160.472 9.04176L167.802 28.6804L175.083 9.04176H179.174L170.086 33.065H165.377L156.285 9.04176H160.472ZM200.826 27.9269V17.4262C200.826 11.8232 197.259 8.76121 191.072 8.76121C185.22 8.76121 181.364 11.5387 180.793 16.248H184.697C185.175 13.7991 187.459 12.196 190.885 12.196C194.691 12.196 196.926 14.0796 196.926 17.1898V18.837H189.787C183.409 18.837 180.032 21.5222 180.032 26.3237C180.032 30.7043 183.648 33.3415 188.978 33.3415C193.165 33.3415 195.59 31.5059 197.113 29.3377C197.162 31.6943 198.255 33.057 201.491 33.057H203.632V29.5259H202.397C201.304 29.5259 200.826 29.1973 200.826 27.9269ZM196.919 23.2657C196.919 27.2695 194.112 30.047 189.256 30.047C186.021 30.047 183.976 28.4439 183.976 26.0913C183.976 23.3619 185.928 22.0874 189.402 22.0874H196.923V23.2657H196.919ZM212.339 12.5767V26.7526C212.339 28.7765 213.053 29.53 215.146 29.53H219.002V33.0609H214.765C210.104 33.0609 208.436 31.037 208.436 26.7966V12.5727H204.058V9.04176H208.436V2.30854H212.339V9.04577H218.621V12.5767H212.339ZM226.278 9.04176H222.378V33.0609H226.278V9.04176ZM242.788 8.76121C235.697 8.76121 230.749 13.755 230.749 21.0534C230.749 28.3516 235.697 33.3456 242.788 33.3456C249.879 33.3456 254.828 28.3516 254.828 21.0534C254.828 13.755 249.879 8.76121 242.788 8.76121ZM250.83 21.0534C250.83 26.1875 247.595 29.9067 242.788 29.9067C237.982 29.9067 234.746 26.1875 234.746 21.0534C234.746 15.9192 237.982 12.2 242.788 12.2C247.595 12.2 250.83 15.9192 250.83 21.0534ZM271.196 8.76121C276.667 8.76121 280.996 11.727 280.996 19.6867L281 19.6947V33.073H277.095V19.9312C277.095 14.9374 274.763 12.3002 270.527 12.3002C265.959 12.3002 263.199 15.6427 263.199 21.0574V33.0689H259.298V9.04577H262.676L263.199 12.2962C264.628 10.4565 267.102 8.76121 271.196 8.76121ZM73.0665 36.9967H68.9278V69.9655H88.2483V66.198H73.0665V36.9967ZM111.23 54.3267V64.8313L111.226 64.8233C111.226 66.0978 111.703 66.4264 112.797 66.4264H114.036V69.9575H111.894C108.658 69.9575 107.565 68.5948 107.516 66.2382C105.993 68.4064 103.568 70.242 99.3765 70.242C94.0473 70.242 90.431 67.6048 90.431 63.2242C90.431 58.4227 93.8083 55.7375 100.186 55.7375H107.326V54.0903C107.326 50.9801 105.086 49.0965 101.28 49.0965C97.858 49.0965 95.5699 50.6996 95.0962 53.1483H91.1964C91.7674 48.4392 95.6226 45.6617 101.474 45.6617C107.662 45.6617 111.23 48.7237 111.23 54.3267ZM99.6641 66.9475C104.519 66.9475 107.326 64.17 107.326 60.1662H107.33V58.9879H99.8098C96.3354 58.9879 94.3834 60.2624 94.3834 62.9918C94.3834 65.3443 96.4285 66.9475 99.6641 66.9475ZM129.262 45.6617C125.958 45.5695 122.828 47.1245 120.936 49.8058V36.9967H117.033V69.9655H120.414L120.936 66.2901C122.41 68.5987 125.172 70.2459 129.262 70.2459C135.973 70.2459 140.922 65.3003 140.922 57.9539C140.922 50.1345 135.973 45.6617 129.262 45.6617ZM128.882 66.8072C124.123 66.8072 120.888 63.132 120.888 57.8576C120.888 52.5832 124.123 49.1004 128.882 49.1004C133.64 49.1004 136.924 52.7275 136.924 57.9539C136.924 63.1802 133.689 66.8072 128.882 66.8072ZM0 15.9594L11.8733 23.5302C14.0318 24.9049 15.3357 27.2736 15.3357 29.8145L15.3277 69.9655H28.8005V34.3315L28.8087 18.4722L0 0.096185V15.9553V15.9594ZM45.4241 40.2471L45.4322 0.096185H31.9593V34.1631L31.9511 51.5933L60.7598 69.9614V54.1023L48.8864 46.5314C46.7281 45.1567 45.4241 42.788 45.4241 40.2471Z" fill="white"/>
</g>
</svg>
