<svg width="41" height="40" viewBox="0 0 41 40" fill="none" xmlns="http://www.w3.org/2000/svg">
<path d="M9.41357 39.6003H1.21565V13.2006H9.41357V39.6003ZM5.3102 9.59949C2.68877 9.59949 0.5625 7.42821 0.5625 4.80678C0.5625 3.54761 1.0627 2.34002 1.95307 1.44965C2.84343 0.559284 4.05103 0.059082 5.3102 0.059082C6.56936 0.059082 7.77696 0.559284 8.66733 1.44965C9.55769 2.34002 10.0579 3.54761 10.0579 4.80678C10.0579 7.42821 7.93074 9.59949 5.3102 9.59949ZM40.0957 39.6003H31.9155V26.7491C31.9155 23.6863 31.8537 19.7586 27.6532 19.7586C23.391 19.7586 22.7378 23.0862 22.7378 26.5284V39.6003H14.5487V13.2006H22.4113V16.8018H22.526C23.6205 14.7276 26.294 12.5387 30.2826 12.5387C38.5794 12.5387 40.1046 18.0022 40.1046 25.0986V39.6003H40.0957Z" fill="#212121"/>
</svg>
