<svg width="162" height="32" viewBox="0 0 162 32" fill="none" xmlns="http://www.w3.org/2000/svg">
<g clip-path="url(#clip0_181_49)">
<path d="M107.431 0.216919H135.58V5.24185H124.414V31.6773H118.83V5.24185H107.431V0.216919Z" fill="#212121"/>
<path d="M61.1368 0.216919V5.24185H38.5734V13.3254H56.7189V18.3503H38.5734V26.6524H61.1368V31.6773H32.9901V5.24185H32.9878V0.216919H61.1368Z" fill="#212121"/>
<path d="M75.192 0.22998H67.8853L94.0565 31.6904H101.385L88.2973 15.971L101.364 0.253983L94.0565 0.264904L84.639 11.5769L75.192 0.22998Z" fill="#212121"/>
<path d="M82.6903 22.7022L79.0312 18.3021L67.8647 31.7143H75.1924L82.6903 22.7022Z" fill="#212121"/>
<path fill-rule="evenodd" clip-rule="evenodd" d="M33.1856 31.6769L6.97908 0.203369H0V31.6638H5.58327V6.92801L26.1716 31.6769H33.1856Z" fill="#212121"/>
<path d="M136.836 31.4851C136.427 31.4851 136.079 31.3482 135.788 31.0742C135.496 30.8002 135.352 30.4684 135.356 30.0755C135.352 29.6933 135.496 29.3652 135.788 29.0912C136.079 28.8172 136.427 28.6802 136.836 28.6802C137.229 28.6802 137.573 28.8172 137.864 29.0912C138.16 29.3652 138.307 29.6933 138.311 30.0755C138.307 30.335 138.239 30.573 138.103 30.7857C137.963 31.002 137.785 31.1715 137.562 31.2941C137.342 31.4203 137.1 31.4851 136.836 31.4851Z" fill="#212121"/>
<path d="M146.365 18.2318H148.839V27.4508C148.836 28.298 148.646 29.0227 148.276 29.632C147.901 30.2413 147.383 30.7064 146.717 31.0345C146.055 31.3589 145.279 31.5248 144.398 31.5248C143.592 31.5248 142.87 31.3842 142.227 31.1102C141.583 30.8362 141.073 30.4252 140.698 29.8844C140.32 29.3436 140.134 28.6694 140.134 27.8618H142.613C142.616 28.2151 142.699 28.5215 142.858 28.7775C143.017 29.0335 143.236 29.2282 143.517 29.3652C143.8 29.5022 144.126 29.5707 144.492 29.5707C144.89 29.5707 145.23 29.4914 145.506 29.3291C145.782 29.1705 145.994 28.9325 146.142 28.6153C146.286 28.3016 146.361 27.9122 146.365 27.4508V18.2318Z" fill="#212121"/>
<path d="M159.019 21.8371C158.958 21.2783 158.693 20.842 158.232 20.5319C157.766 20.2183 157.165 20.0633 156.427 20.0633C155.909 20.0633 155.463 20.139 155.092 20.2868C154.721 20.4382 154.434 20.6401 154.237 20.8961C154.04 21.1521 153.942 21.4441 153.934 21.7722C153.934 22.0462 154.002 22.2842 154.135 22.4825C154.267 22.6843 154.445 22.8538 154.676 22.9908C154.903 23.1314 155.156 23.2468 155.433 23.3405C155.712 23.4343 155.992 23.5136 156.272 23.5785L157.562 23.8849C158.081 24.0003 158.584 24.1554 159.064 24.3536C159.545 24.5483 159.98 24.7971 160.362 25.0963C160.744 25.3956 161.047 25.7561 161.27 26.178C161.493 26.5998 161.606 27.0937 161.606 27.6634C161.606 28.4313 161.402 29.1055 160.99 29.6896C160.577 30.27 159.983 30.7243 159.204 31.0524C158.428 31.3769 157.49 31.5427 156.386 31.5427C155.319 31.5427 154.388 31.3841 153.605 31.0669C152.819 30.7532 152.205 30.2917 151.763 29.686C151.32 29.0803 151.082 28.3412 151.048 27.4723H153.499C153.533 27.9265 153.685 28.3051 153.942 28.6116C154.203 28.9144 154.543 29.138 154.96 29.2894C155.38 29.4372 155.848 29.5129 156.367 29.5129C156.908 29.5129 157.385 29.4336 157.797 29.2786C158.205 29.1235 158.527 28.9072 158.758 28.626C158.992 28.3484 159.11 28.0203 159.113 27.6454C159.11 27.3028 159.004 27.018 158.799 26.7944C158.591 26.5709 158.304 26.3835 157.937 26.232C157.566 26.0806 157.135 25.9436 156.643 25.8246L155.077 25.4425C153.946 25.1648 153.049 24.743 152.394 24.177C151.737 23.6109 151.411 22.861 151.411 21.92C151.411 21.1485 151.63 20.4707 152.073 19.8902C152.512 19.3098 153.113 18.8591 153.874 18.5382C154.638 18.2137 155.501 18.0551 156.461 18.0551C157.437 18.0551 158.292 18.2137 159.03 18.5382C159.768 18.8591 160.347 19.3062 160.766 19.8758C161.186 20.4454 161.406 21.098 161.417 21.8371H159.019Z" fill="#212121"/>
</g>
<defs>
<clipPath id="clip0_181_49">
<rect width="161.607" height="31.3519" fill="#212121" transform="translate(0 0.197144)"/>
</clipPath>
</defs>
</svg>
