<svg width="255" height="126" viewBox="0 0 255 126" fill="none" xmlns="http://www.w3.org/2000/svg">
<path d="M17.0561 125.947C14.6447 125.986 12.2578 125.456 10.0853 124.401C8.0406 123.396 6.21238 121.995 4.70514 120.278C3.1997 118.545 2.02267 116.548 1.23255 114.387C0.414921 112.217 -0.00277138 109.915 1.65954e-05 107.594C-0.00309868 105.251 0.432413 102.929 1.2837 100.75C2.10226 98.6044 3.31704 96.6352 4.86368 94.9462C6.41029 93.2702 8.26309 91.9105 10.3206 90.9416C12.4872 89.9282 14.8518 89.4175 17.2402 89.4469C19.6521 89.4145 22.038 89.9529 24.2058 91.0189C26.2563 92.0303 28.0869 93.4423 29.5911 95.173C31.0848 96.9052 32.2514 98.8982 33.033 101.054C33.833 103.21 34.2436 105.493 34.2451 107.795C34.2502 110.129 33.8145 112.443 32.9614 114.614C32.137 116.743 30.9342 118.702 29.4121 120.396C27.8801 122.084 26.0349 123.453 23.9808 124.427C21.8144 125.449 19.4481 125.969 17.0561 125.947ZM9.9626 107.697C9.9572 108.884 10.0998 110.066 10.3871 111.217C10.649 112.296 11.1011 113.319 11.7219 114.237C12.3151 115.104 13.0881 115.83 13.9875 116.366C14.9498 116.922 16.0445 117.201 17.1532 117.175C18.2835 117.205 19.3994 116.916 20.3752 116.34C21.2673 115.793 22.0231 115.047 22.5846 114.16C23.1745 113.215 23.6064 112.179 23.8632 111.094C24.1491 109.949 24.2933 108.774 24.2928 107.594C24.2979 106.404 24.1448 105.218 23.8376 104.069C23.5641 103.004 23.1145 101.994 22.5079 101.079C21.9244 100.231 21.1588 99.5266 20.2678 99.0178C19.299 98.4762 18.2046 98.204 17.097 98.2293C15.9753 98.1907 14.865 98.4673 13.8903 99.0281C13.0006 99.569 12.2436 100.305 11.6759 101.182C11.0726 102.115 10.6299 103.143 10.3666 104.223C10.0884 105.36 9.95269 106.527 9.9626 107.697Z" fill="white"/>
<path d="M58.0519 117.175C59.0768 117.206 60.0894 116.943 60.9722 116.418C61.772 115.913 62.443 115.227 62.931 114.413C63.4585 113.528 63.8337 112.559 64.0407 111.547C64.2755 110.431 64.392 109.292 64.3885 108.151V89.6482H74.2028V108.151C74.2187 110.526 73.8967 112.892 73.2464 115.176C72.6651 117.256 71.6523 119.188 70.275 120.845C68.8943 122.465 67.1666 123.748 65.2221 124.597C62.9576 125.556 60.5179 126.023 58.0622 125.968C55.5347 126.033 53.0244 125.532 50.713 124.499C48.7726 123.609 47.0599 122.283 45.7061 120.623C44.3744 118.952 43.3978 117.022 42.837 114.954C42.2234 112.734 41.9187 110.44 41.9318 108.135V89.6482H51.7461V108.151C51.7408 109.301 51.8574 110.448 52.0938 111.573C52.2982 112.593 52.6735 113.571 53.2036 114.464C53.6819 115.269 54.3449 115.946 55.1368 116.438C56.0191 116.959 57.0304 117.214 58.0519 117.175Z" fill="white"/>
<path d="M111.63 98.2656H101.345V125.643H91.5564V98.2656H81.2461V89.6482H111.63V98.2656Z" fill="white"/>
<path d="M119.245 125.643V89.6482H129.054V104.352L140.929 89.6482H150.953L137.988 105.78L151.874 125.654H141.609L132.204 111.295L129.033 114.944V125.643H119.245Z" fill="white"/>
<path d="M183.363 117.026V125.643H157.91V89.6482H182.913V98.2656H167.719V103.337H180.699V111.346H167.719V117.016L183.363 117.026Z" fill="white"/>
<path d="M191.966 125.643V89.6474H207.36C209.03 89.6324 210.682 90.0044 212.188 90.7349C213.62 91.4322 214.909 92.3957 215.988 93.5747C217.047 94.7503 217.89 96.1063 218.478 97.5793C219.069 99.0196 219.376 100.562 219.383 102.12C219.373 105.302 218.219 108.372 216.136 110.763C215.098 111.939 213.833 112.888 212.418 113.551C210.911 114.25 209.269 114.602 207.61 114.582H201.775V125.632L191.966 125.643ZM201.775 105.97H206.956C207.279 105.958 207.597 105.878 207.888 105.734C208.179 105.59 208.436 105.386 208.643 105.135C209.158 104.578 209.417 103.573 209.421 102.12C209.421 100.63 209.119 99.6203 208.516 99.0791C208.034 98.59 207.388 98.2996 206.705 98.2648H201.775V105.97Z" fill="white"/>
<path d="M255 98.2656H244.736V125.643H234.927V98.2656H224.601V89.6482H254.985L255 98.2656Z" fill="white"/>
<path d="M60.7544 25.6976H115.492V0H39.9036V76.1753H115.492V50.4777H60.7544V25.6976Z" fill="white"/>
<path d="M170.234 25.6978H115.491V50.4779H170.234V25.6978Z" fill="white"/>
</svg>
