<svg width="54" height="54" viewBox="0 0 54 54" fill="none" xmlns="http://www.w3.org/2000/svg">
<g clip-path="url(#clip0_181_63)">
<path d="M52.8809 32.1839C52.5684 31.2374 51.7497 30.5782 50.6911 30.42C50.1919 30.3455 49.6203 30.3773 48.9438 30.5167C47.7646 30.76 46.8898 30.8527 46.2514 30.8706C48.6612 26.8019 50.6207 22.1623 51.7487 17.7948C53.5728 10.7327 52.5981 7.51544 51.459 6.06022C48.4446 2.20841 44.0465 0.139188 38.7407 0.0758737C35.9103 0.0412645 33.4256 0.600102 32.1294 1.00198C30.9225 0.789028 29.6249 0.670135 28.2633 0.648148C25.711 0.607431 23.4559 1.16383 21.529 2.30736C20.4622 1.94661 18.75 1.43805 16.7728 1.11354C12.1226 0.350101 8.37459 0.944973 5.63313 2.88167C2.3135 5.22654 0.774605 9.30066 1.05922 14.9908C1.14961 16.7974 2.1602 22.2942 3.75141 27.5072C4.66591 30.5035 5.64107 32.9917 6.64983 34.9034C8.08041 37.6141 9.61116 39.2104 11.3296 39.7837C12.2928 40.1045 14.0428 40.3293 15.8834 38.7963C16.1167 39.0789 16.428 39.3596 16.841 39.6204C17.3657 39.9512 18.0072 40.2216 18.6478 40.3818C20.9567 40.959 23.1194 40.8146 24.9644 40.0056C24.9758 40.3338 24.9846 40.6473 24.9919 40.918C25.0041 41.3572 25.0163 41.7878 25.0324 42.1904C25.1418 44.9132 25.327 47.0302 25.8759 48.5115C25.906 48.5929 25.9465 48.7171 25.9893 48.8489C26.2631 49.6872 26.721 51.0907 27.8859 52.1899C29.0921 53.3285 30.5512 53.6777 31.8875 53.6777C32.5577 53.6777 33.1972 53.5897 33.758 53.4696C35.7572 53.041 38.0278 52.3884 39.6703 50.0496C41.2232 47.8387 41.9781 44.5087 42.1147 39.2617C42.1324 39.1133 42.1487 38.9716 42.1644 38.8366L42.197 38.5593L42.5628 38.5915L42.6571 38.5978C44.6933 38.6906 47.1832 38.2588 48.7123 37.5485C49.9205 36.9879 53.7925 34.9437 52.8809 32.1839Z" fill="#313131"/>
<path d="M49.3998 32.7205C43.3452 33.9694 42.9288 31.9196 42.9288 31.9196C49.3214 22.434 51.9938 10.3934 49.6878 7.44654C43.3963 -0.591963 32.5056 3.20976 32.3238 3.3083L32.2653 3.31888C31.0691 3.07051 29.7305 2.92271 28.2258 2.89807C25.4864 2.85329 23.4082 3.61632 21.8312 4.81217C21.8312 4.81217 2.40324 -3.19152 3.30694 14.8782C3.49913 18.7222 8.81674 43.9648 15.1592 36.3404C17.4774 33.5523 19.7174 31.195 19.7174 31.195C20.8298 31.934 22.1617 32.3111 23.5578 32.1757L23.6663 32.0836C23.6326 32.4297 23.648 32.7683 23.7097 33.1692C22.0757 34.9947 22.556 35.3151 19.2897 35.9876C15.9845 36.6688 17.9261 37.8813 19.1938 38.1985C20.7307 38.5827 24.2861 39.127 26.6883 35.764L26.5927 36.1478C27.2327 36.6606 27.6822 39.4831 27.6069 42.0419C27.5316 44.6006 27.4813 46.3573 27.9856 47.7295C28.4903 49.1016 28.9929 52.189 33.2869 51.269C36.8747 50.5 38.734 48.5076 38.9927 45.1839C39.1762 42.8211 39.5917 43.1704 39.6178 41.0578L39.951 40.0578C40.3352 36.8548 40.0121 35.8214 42.2224 36.3021L42.7599 36.3493C44.3865 36.4232 46.516 36.0875 47.7658 35.5067C50.4568 34.2579 52.0529 32.1726 49.3993 32.7205H49.3998Z" fill="#313131"/>
<path d="M22.9681 16.5969C22.4225 16.521 21.9284 16.5912 21.6784 16.7806C21.5379 16.8871 21.4944 17.0104 21.4826 17.0953C21.4512 17.3203 21.6088 17.5691 21.7057 17.6973C21.9797 18.0605 22.38 18.3101 22.7761 18.3651C22.8336 18.3732 22.8908 18.3769 22.9476 18.3769C23.6082 18.3769 24.209 17.8624 24.2619 17.4827C24.3281 17.0072 23.6377 16.69 22.9681 16.5969ZM41.0431 16.612C40.991 16.2392 40.3277 16.133 39.6982 16.2205C39.0696 16.3081 38.46 16.5919 38.5109 16.9654C38.5517 17.2559 39.0763 17.7519 39.6972 17.7519C39.7497 17.7519 39.8027 17.7484 39.856 17.7409C40.2705 17.6835 40.5747 17.4202 40.7192 17.2686C40.9391 17.0373 41.0665 16.7796 41.0431 16.612Z" fill="white"/>
<path d="M51.4136 32.5786C51.1827 31.8805 50.4396 31.6559 49.2051 31.9108C45.5395 32.6673 44.2268 32.1433 43.7959 31.8259C46.645 27.4855 48.9889 22.2387 50.2533 17.3436C50.8523 15.0247 51.1831 12.8712 51.2102 11.1159C51.2401 9.18942 50.9119 7.7737 50.2352 6.90887C47.5068 3.4225 43.5023 1.55238 38.655 1.50107C35.3225 1.46362 32.5069 2.31643 31.9611 2.55625C30.8117 2.27042 29.5586 2.09493 28.1944 2.07253C25.6928 2.03202 23.5303 2.63096 21.74 3.85186C20.9623 3.56236 18.9525 2.87242 16.4947 2.47644C12.2454 1.7924 8.86881 2.31073 6.45919 4.01778C3.58398 6.05484 2.25661 9.69614 2.51374 14.8403C2.60026 16.571 3.58642 21.8951 5.14261 26.9938C7.19107 33.7048 9.41787 37.5039 11.7607 38.2854C12.0349 38.3768 12.3511 38.4408 12.6998 38.4408C13.5545 38.4408 14.6023 38.0556 15.6925 36.7449C17.0223 35.1497 18.3978 33.5933 19.8173 32.0775C20.7384 32.5718 21.7502 32.8479 22.785 32.8756C22.787 32.9027 22.7897 32.9297 22.7921 32.9566C22.614 33.169 22.4395 33.3845 22.2689 33.603C21.5519 34.5132 21.4027 34.7027 19.0946 35.1779C18.4381 35.3135 16.6944 35.6728 16.6687 36.8951C16.641 38.2307 18.73 38.7915 18.968 38.851C19.7974 39.0586 20.5965 39.161 21.3585 39.161C23.2117 39.161 24.8426 38.5519 26.146 37.3734C26.1058 42.1344 26.3043 46.8258 26.876 48.2551C27.3442 49.4253 28.488 52.2851 32.1008 52.2849C32.6309 52.2849 33.2144 52.2232 33.8563 52.0856C37.6269 51.2773 39.2643 49.6108 39.8976 45.9367C40.2366 43.9731 40.8182 39.2844 41.0919 36.7693C41.6692 36.9495 42.4125 37.032 43.216 37.0317C44.8919 37.0317 46.8258 36.6757 48.0385 36.1128C49.4009 35.48 51.8594 33.9275 51.4136 32.5786ZM42.4343 15.5834C42.4219 16.3258 42.3197 16.9999 42.2114 17.7035C42.0947 18.4602 41.9742 19.2426 41.9439 20.1923C41.9139 21.1166 42.0294 22.0775 42.1409 23.0069C42.3665 24.8839 42.598 26.8163 41.702 28.7231C41.5532 28.4594 41.4206 28.1868 41.305 27.9069C41.1936 27.637 40.9518 27.2033 40.6169 26.6032C39.3142 24.2668 36.2635 18.7957 37.8251 16.5632C38.2903 15.8987 39.4709 15.2155 42.4343 15.5834ZM38.8423 3.00454C43.1855 3.10043 46.6212 4.72523 49.0536 7.83355C50.9193 10.2177 48.8649 21.0661 42.9176 30.425C42.8578 30.349 42.7977 30.2732 42.7372 30.1976L42.6619 30.1036C44.1987 27.5655 43.8983 25.0543 43.6307 22.8279C43.5208 21.9142 43.417 21.0512 43.4434 20.2406C43.4707 19.3814 43.5843 18.6445 43.6943 17.9319C43.8292 17.0539 43.9667 16.1453 43.9288 15.0742C43.9571 14.9618 43.9685 14.8291 43.9536 14.6715C43.8569 13.6444 42.6843 10.5705 40.2942 7.78835C38.9868 6.26657 37.0802 4.56359 34.477 3.41497C35.5967 3.18288 37.1279 2.96647 38.8423 3.00454ZM14.5388 35.7856C13.3377 37.2298 12.5083 36.953 12.2355 36.8622C10.4582 36.2693 8.39588 32.5128 6.57768 26.5559C5.00438 21.4016 4.085 16.2186 4.01211 14.7652C3.78247 10.1687 4.89668 6.96526 7.32401 5.24376C11.2744 2.44245 17.7691 4.11916 20.3788 4.96953C20.3414 5.00658 20.3023 5.04119 20.2652 5.07886C15.9826 9.40379 16.0842 16.7931 16.0948 17.2448C16.0944 17.4191 16.1091 17.6658 16.129 18.0052C16.2027 19.2481 16.3399 21.5612 15.9735 24.1807C15.6331 26.615 16.3835 28.9975 18.0319 30.7176C18.2011 30.8938 18.3789 31.0615 18.5647 31.22C17.831 32.0059 16.2363 33.7437 14.5388 35.7856ZM19.1152 29.6795C17.7866 28.2931 17.1832 26.3648 17.4594 24.3884C17.8462 21.6213 17.7035 19.2112 17.6268 17.9164C17.616 17.7353 17.6064 17.5765 17.6009 17.4513C18.2265 16.8965 21.1258 15.3431 23.1934 15.8169C24.1368 16.0329 24.7117 16.6754 24.9507 17.7805C26.1877 23.5018 25.1144 25.8863 24.252 27.8027C24.0743 28.1974 23.9063 28.5706 23.763 28.9566L23.6518 29.255C23.3705 30.0095 23.1087 30.7111 22.9464 31.3772C21.534 31.3731 20.16 30.7697 19.1152 29.6793V29.6795ZM19.332 37.3953C18.9195 37.2923 18.5486 37.1134 18.331 36.965C18.5128 36.8795 18.8363 36.763 19.3973 36.6474C22.1125 36.0885 22.5319 35.694 23.4476 34.5313C23.6575 34.2646 23.8955 33.9625 24.2251 33.5944L24.2255 33.594C24.7164 33.0444 24.9409 33.1376 25.3481 33.3066C25.6781 33.443 25.9996 33.8567 26.1299 34.3119C26.1916 34.5269 26.2608 34.9348 26.0342 35.2524C24.1213 37.9308 21.3338 37.8964 19.332 37.3953ZM33.5419 50.6185C30.2203 51.3303 29.0442 49.6354 28.2691 47.6979C27.7689 46.4471 27.523 40.8066 27.6975 34.5775C27.6997 34.4947 27.6879 34.4147 27.6651 34.3393C27.6447 34.1906 27.6137 34.0435 27.5723 33.8992C27.3129 32.9928 26.6808 32.2347 25.9224 31.9204C25.6211 31.7956 25.0682 31.5665 24.4037 31.7365C24.5454 31.1527 24.7911 30.4932 25.0576 29.7793L25.1694 29.479C25.2952 29.1404 25.4532 28.7897 25.6201 28.4183C26.5226 26.4134 27.7585 23.6673 26.4171 17.4635C25.9147 15.1398 24.2367 14.005 21.6932 14.2686C20.1683 14.4264 18.7732 15.0416 18.0773 15.3944C17.9277 15.4702 17.7909 15.5435 17.663 15.6147C17.8572 13.2735 18.591 8.89809 21.3357 6.12976C23.0639 4.38708 25.3654 3.52633 28.1696 3.57274C33.6948 3.66313 37.238 6.49865 39.2376 8.86165C40.9607 10.8977 41.8938 12.9488 42.2661 14.0551C39.4658 13.7703 37.5613 14.323 36.5959 15.7033C34.4955 18.7057 37.7449 24.5331 39.3066 27.3338C39.5931 27.8471 39.8402 28.2907 39.918 28.4792C40.4265 29.7117 41.0849 30.5346 41.5656 31.1351C41.713 31.3192 41.8559 31.4977 41.9646 31.6537C41.1165 31.8982 39.5931 32.4631 39.7319 35.287C39.6199 36.704 38.8237 43.338 38.4192 45.6818C37.8852 48.7783 36.7457 49.9316 33.5419 50.6187V50.6185ZM47.4068 34.752C46.5396 35.1545 45.0882 35.4564 43.7095 35.5214C42.1867 35.5926 41.4115 35.3508 41.2291 35.2019C41.1436 33.4422 41.7985 33.2583 42.4917 33.0637C42.6006 33.0332 42.7069 33.0032 42.8095 32.9674C42.8732 33.0193 42.943 33.0708 43.0196 33.1213C44.2435 33.9291 46.4266 34.0163 49.5086 33.3801L49.5424 33.3733C49.1267 33.762 48.4154 34.2836 47.4068 34.752Z" fill="white"/>
</g>
<defs>
<clipPath id="clip0_181_63">
<rect width="53.7461" height="53.7461" fill="white" transform="translate(0.151367)"/>
</clipPath>
</defs>
</svg>
