<svg width="36" height="32" viewBox="0 0 36 32" fill="none" xmlns="http://www.w3.org/2000/svg">
<path d="M29.2683 10.3562C28.8981 10.2328 28.5279 10.1163 28.1578 10.0066C28.2195 9.75295 28.2743 9.49932 28.3291 9.24569C29.1723 5.16021 28.617 1.87674 26.7457 0.793677C24.9429 -0.241403 22.0021 0.834806 19.0271 3.42594C18.7324 3.67956 18.4445 3.9469 18.1703 4.21424C17.9852 4.03602 17.7933 3.85779 17.6013 3.68642C14.4824 0.917064 11.3566 -0.248258 9.48519 0.841661C7.68922 1.8836 7.15454 4.97513 7.90858 8.84126C7.98398 9.22513 8.06624 9.60214 8.16221 9.98602C7.7235 10.1094 7.29164 10.2465 6.88721 10.3905C3.22672 11.6586 0.601318 13.6602 0.601318 15.7304C0.601318 17.8691 3.39809 20.0146 7.20253 21.3171C7.511 21.4199 7.81946 21.5227 8.13479 21.6118C8.03196 22.0231 7.94285 22.4275 7.86059 22.8457C7.14083 26.6501 7.70293 29.6663 9.4989 30.7013C11.3497 31.7707 14.4618 30.6739 17.4916 28.0211C17.7316 27.8086 17.9715 27.5892 18.2114 27.3562C18.513 27.6509 18.8283 27.932 19.1437 28.2062C22.0775 30.7288 24.9771 31.7501 26.7662 30.715C28.617 29.6457 29.2203 26.4034 28.4388 22.455C28.3771 22.1534 28.3086 21.8449 28.2332 21.5296C28.4525 21.4679 28.665 21.3993 28.8775 21.3308C32.8328 20.0215 35.6981 17.9034 35.6981 15.7304C35.6981 13.6534 32.9973 11.638 29.2683 10.3562ZM19.9937 4.53642C22.5437 2.31545 24.9223 1.44489 26.0054 2.06868C27.1638 2.7336 27.6094 5.42069 26.8828 8.95094C26.8348 9.184 26.7868 9.41021 26.7251 9.63642C25.2033 9.29368 23.661 9.0469 22.1118 8.90981C21.2207 7.63481 20.2473 6.41465 19.1916 5.26989C19.459 5.01626 19.7195 4.77634 19.9937 4.53642ZM12.0626 19.288C12.4122 19.8844 12.7687 20.4808 13.1457 21.0634C12.0763 20.9469 11.0138 20.7755 9.96503 20.5493C10.2666 19.5622 10.6437 18.5409 11.0824 17.4989C11.3977 18.1021 11.7199 18.6985 12.0626 19.288ZM9.98559 11.0417C10.9727 10.8223 12.0215 10.6441 13.1114 10.507C12.7481 11.0759 12.3916 11.6586 12.0558 12.2481C11.7199 12.8308 11.3908 13.4271 11.0824 14.0304C10.6505 13.009 10.2872 12.0082 9.98559 11.0417ZM11.8638 15.7646C12.3162 14.8187 12.8098 13.8933 13.3308 12.9816C13.8517 12.0699 14.4138 11.1856 15.0033 10.315C16.0316 10.2396 17.0804 10.1985 18.1497 10.1985C19.2191 10.1985 20.2747 10.2396 21.2961 10.315C21.8787 11.1788 22.434 12.063 22.9618 12.9679C23.4896 13.8727 23.9832 14.7981 24.4493 15.7372C23.99 16.6832 23.4965 17.6155 22.9687 18.534C22.4477 19.4457 21.8924 20.33 21.3098 21.2074C20.2884 21.2828 19.2259 21.3171 18.1497 21.3171C17.0735 21.3171 16.0316 21.2828 15.0239 21.2211C14.4275 20.3505 13.8654 19.4594 13.3376 18.5477C12.8098 17.636 12.3231 16.7106 11.8638 15.7646ZM24.2437 19.2743C24.5933 18.6711 24.9223 18.061 25.2445 17.4441C25.6832 18.438 26.067 19.4457 26.4029 20.4808C25.3404 20.7207 24.2642 20.9058 23.1812 21.0292C23.5513 20.4534 23.9009 19.8638 24.2437 19.2743ZM25.2308 14.0304C24.9086 13.4271 24.5795 12.8239 24.2368 12.2344C23.9009 11.6517 23.5513 11.0759 23.188 10.507C24.2916 10.6441 25.3473 10.8292 26.3344 11.0554C26.0191 12.0699 25.6489 13.057 25.2308 14.0304ZM18.1634 6.31868C18.8832 7.10013 19.5618 7.92271 20.1924 8.77271C18.8352 8.71102 17.4711 8.71102 16.1138 8.77271C16.7856 7.88844 17.4779 7.06585 18.1634 6.31868ZM10.2118 2.11666C11.3634 1.44489 13.9203 2.40456 16.6142 4.79005C16.7856 4.94085 16.957 5.10537 17.1352 5.26989C16.0727 6.41465 15.0924 7.63481 14.1945 8.90981C12.6453 9.0469 11.1098 9.28682 9.58801 9.62271C9.4989 9.27311 9.4235 8.91666 9.34809 8.56021C8.70374 5.24247 9.12874 2.74045 10.2118 2.11666ZM8.53237 20.186C8.24446 20.1038 7.96342 20.0146 7.68237 19.9187C6.22229 19.4594 4.56342 18.7328 3.36382 17.78C2.67148 17.3001 2.20535 16.5598 2.07511 15.7304C2.07511 14.4759 4.24124 12.8719 7.36704 11.782C7.75777 11.6449 8.15535 11.5215 8.55293 11.405C9.01906 12.8925 9.58116 14.3525 10.2324 15.7646C9.5743 17.1973 9.00535 18.678 8.53237 20.186ZM16.5251 26.9038C15.3941 27.9388 14.0848 28.7614 12.659 29.3235C11.8981 29.6868 11.0207 29.7211 10.2392 29.4126C9.1493 28.782 8.69688 26.3622 9.31382 23.1062C9.38922 22.7223 9.47148 22.3384 9.56745 21.9614C11.1029 22.2905 12.6521 22.5167 14.2219 22.6332C15.1267 23.915 16.1207 25.1421 17.1832 26.2937C16.9638 26.5062 16.7445 26.7118 16.5251 26.9038ZM18.2045 25.238C17.5054 24.484 16.8062 23.6477 16.1275 22.7497C16.7856 22.7771 17.4642 22.7909 18.1497 22.7909C18.8558 22.7909 19.5481 22.7771 20.2336 22.7429C19.6029 23.6134 18.9243 24.4429 18.2045 25.238ZM27.1638 27.2945C27.1021 28.1308 26.6908 28.9122 26.0328 29.44C24.9429 30.0707 22.6191 29.2481 20.1102 27.0957C19.8223 26.8489 19.5344 26.5816 19.2396 26.3074C20.2884 25.1489 21.2549 23.9219 22.1324 22.6332C23.7021 22.503 25.265 22.263 26.8074 21.9134C26.8759 22.1945 26.9376 22.4755 26.9924 22.7497C27.3283 24.2304 27.3832 25.7727 27.1638 27.2945ZM28.4114 19.9255C28.2195 19.9872 28.0275 20.0489 27.8287 20.1038C27.3489 18.6094 26.7594 17.1493 26.0808 15.7304C26.7388 14.332 27.2941 12.8925 27.7602 11.4187C28.1166 11.5215 28.4594 11.6312 28.7884 11.7409C31.9828 12.8376 34.2243 14.4691 34.2243 15.7167C34.2243 17.0602 31.832 18.7945 28.4114 19.9255ZM18.1497 18.8973C19.884 18.8973 21.2892 17.4921 21.2892 15.7578C21.2892 14.0235 19.884 12.6183 18.1497 12.6183C16.4154 12.6183 15.0102 14.0235 15.0102 15.7578C15.0102 17.4921 16.4154 18.8973 18.1497 18.8973Z" fill="#212121"/>
</svg>
