<svg width="48" height="47" viewBox="0 0 48 47" fill="none" xmlns="http://www.w3.org/2000/svg">
<g clip-path="url(#clip0_233_860)">
<path fill-rule="evenodd" clip-rule="evenodd" d="M17.6548 26.4107L24.2346 30.9096L30.5773 26.534L44.7947 40.5608C44.4204 40.6817 44.0205 40.7468 43.6043 40.7468H4.85566C4.34415 40.7468 3.8559 40.6468 3.40717 40.4678L17.6548 26.4107ZM47.4801 14.8833V36.871C47.4801 37.4452 47.3546 37.9893 47.1314 38.4799L33.1952 24.7298L47.4801 14.8833ZM0.979861 15.0066L15.0276 24.6135L1.22631 38.2334C1.06285 37.7978 0.979365 37.3363 0.979861 36.871V15.0066ZM43.6043 5.87158C45.7433 5.87158 47.4801 7.60604 47.4801 9.74738V11.1098L24.2253 27.1408L0.979861 11.2424V9.74738C0.979861 7.60837 2.71432 5.87158 4.85566 5.87158H43.6043Z" fill="#212121"/>
</g>
<defs>
<clipPath id="clip0_233_860">
<rect width="46.5002" height="46.5002" fill="white" transform="translate(0.979858 0.059082)"/>
</clipPath>
</defs>
</svg>
