<svg width="52" height="50" viewBox="0 0 52 50" fill="none" xmlns="http://www.w3.org/2000/svg">
<path d="M13.4328 49.4792C10.7594 49.4792 7.85365 47.0383 7.85365 44.1326C7.85365 41.343 10.7594 38.2047 13.3165 36.345L22.9638 27.9763L9.94582 26.6978C5.18032 26.4653 0.298584 24.7218 0.298584 20.77C0.298584 17.8642 2.15829 15.0746 5.64525 15.0746C8.20234 15.0746 10.9919 16.7018 13.0841 18.0966L24.1261 24.7218L21.2203 12.1688C20.6391 10.5416 20.2905 8.33316 20.2905 6.47345C20.2905 3.10273 22.3826 0.661865 25.7533 0.661865C29.1241 0.661865 31.2162 3.10273 31.2162 6.35722C31.2162 8.33316 30.7513 10.4253 30.2864 12.1688L27.3806 24.8381L38.4226 18.2129C40.5148 16.7018 43.3043 15.0746 45.9777 15.0746C48.9997 15.0746 51.0919 17.7479 51.0919 20.77C51.0919 24.9543 45.629 26.6978 41.2122 26.814L28.4267 27.8601L38.0739 36.4613C40.7472 38.321 43.653 41.343 43.653 44.1326C43.653 46.9221 40.8635 49.4792 37.9577 49.4792C34.587 49.4792 31.9136 45.5273 30.7513 41.8079L25.7533 29.836L20.6391 41.6917C19.3606 45.6436 16.8035 49.4792 13.4328 49.4792Z" fill="#BE2525"/>
</svg>
