<svg width="48" height="46" viewBox="0 0 48 46" fill="none" xmlns="http://www.w3.org/2000/svg">
<g clip-path="url(#clip0_181_58)">
<path d="M42.8825 0.478882H5.00586C2.46718 0.478882 0.40918 2.43713 0.40918 4.85275V40.8935C0.40918 43.3091 2.46718 45.2673 5.00586 45.2673H42.8825C45.4211 45.2673 47.4791 43.3091 47.4791 40.8935V4.85275C47.4791 2.43713 45.4211 0.478882 42.8825 0.478882Z" fill="#313131"/>
<path d="M42.8825 0.478882H5.00586C2.46718 0.478882 0.40918 2.43713 0.40918 4.85275V40.8935C0.40918 43.3091 2.46718 45.2673 5.00586 45.2673H42.8825C45.4211 45.2673 47.4791 43.3091 47.4791 40.8935V4.85275C47.4791 2.43713 45.4211 0.478882 42.8825 0.478882Z" fill="#313131"/>
<path fill-rule="evenodd" clip-rule="evenodd" d="M29.546 36.1194V40.4986C30.2942 40.8635 31.179 41.1372 32.2006 41.3196C33.2221 41.5021 34.2988 41.5933 35.4307 41.5933C36.5338 41.5933 37.5816 41.493 38.5744 41.2923C39.5672 41.0916 40.4377 40.7608 41.1859 40.3001C41.934 39.8394 42.5264 39.2372 42.9628 38.4937C43.3992 37.7501 43.6174 36.831 43.6174 35.7362C43.6174 34.9424 43.4928 34.2468 43.2434 33.6493C42.9939 33.0517 42.6343 32.5203 42.1642 32.055C41.6943 31.5897 41.1307 31.1722 40.4737 30.8027C39.8166 30.4332 39.0756 30.0843 38.2507 29.7559C37.6464 29.5187 37.1045 29.2883 36.6249 29.0648C36.1453 28.8412 35.7376 28.6132 35.4019 28.3806C35.0661 28.1479 34.8072 27.9016 34.625 27.6416C34.4427 27.3815 34.3515 27.0873 34.3515 26.7588C34.3515 26.4578 34.4331 26.1864 34.5962 25.9446C34.7593 25.7028 34.9895 25.4953 35.2868 25.3219C35.5842 25.1486 35.9486 25.014 36.3802 24.9182C36.812 24.8224 37.2915 24.7746 37.8191 24.7746C38.2027 24.7746 38.608 24.802 39.0348 24.8566C39.4617 24.9114 39.8909 24.9958 40.3226 25.1098C40.7543 25.2239 41.1738 25.3676 41.5816 25.5409C41.9892 25.7143 42.3657 25.9149 42.711 26.1431V22.0512C42.0108 21.7958 41.2458 21.6065 40.4161 21.4833C39.5864 21.3602 38.6344 21.2986 37.5601 21.2986C36.4666 21.2986 35.4307 21.4104 34.4523 21.6339C33.4739 21.8574 32.6131 22.2063 31.8696 22.6807C31.1262 23.1552 30.5388 23.7596 30.1072 24.494C29.6755 25.2284 29.4597 26.1065 29.4597 27.1283C29.4597 28.433 29.8554 29.546 30.6467 30.4675C31.438 31.3889 32.6394 32.169 34.2509 32.8076C34.8839 33.054 35.4739 33.2957 36.0206 33.5329C36.5673 33.7702 37.0398 34.0165 37.4378 34.2719C37.8358 34.5274 38.15 34.8056 38.3803 35.1067C38.6105 35.4077 38.7256 35.7499 38.7256 36.1331C38.7256 36.4159 38.6536 36.6782 38.5097 36.92C38.3658 37.1617 38.1476 37.3715 37.855 37.5494C37.5625 37.7274 37.198 37.8665 36.7616 37.9668C36.3251 38.0672 35.8144 38.1173 35.2292 38.1173C34.2317 38.1173 33.2437 37.9509 32.2653 37.6178C31.2869 37.2849 30.3805 36.7854 29.546 36.1194ZM21.809 25.3297H27.7129V21.736H11.2568V25.3297H17.1319V41.3309H21.809V25.3297Z" fill="white"/>
</g>
<defs>
<clipPath id="clip0_181_58">
<rect width="47.07" height="44.7884" fill="white" transform="translate(0.40918 0.478882)"/>
</clipPath>
</defs>
</svg>
