<svg width="34" height="34" viewBox="0 0 34 34" fill="none" xmlns="http://www.w3.org/2000/svg">
<path d="M3.68105 11.0637L10.6387 30.1202C5.77177 27.7621 2.41976 22.7718 2.41976 17C2.41976 14.8819 2.87218 12.8802 3.68105 11.0637ZM26.8435 16.2665C26.8435 14.4637 26.1992 13.2161 25.644 12.2427C24.9036 11.0431 24.2113 10.0218 24.2113 8.82218C24.2113 7.47863 25.2258 6.23105 26.6585 6.23105C26.7202 6.23105 26.7819 6.2379 26.8504 6.24476C24.2524 3.86613 20.7976 2.4129 17 2.4129C11.9069 2.4129 7.42379 5.0246 4.8121 8.98669C5.15484 9.0004 5.47702 9.00726 5.75121 9.00726C7.27298 9.00726 9.6379 8.82218 9.6379 8.82218C10.4262 8.77419 10.5153 9.93266 9.73387 10.0218C9.73387 10.0218 8.94556 10.1109 8.06815 10.1589L13.3806 25.9524L16.575 16.3831L14.306 10.1589C13.5177 10.1109 12.7774 10.0218 12.7774 10.0218C11.9891 9.97379 12.0851 8.77419 12.8665 8.82218C12.8665 8.82218 15.2726 9.00726 16.7052 9.00726C18.227 9.00726 20.5919 8.82218 20.5919 8.82218C21.3802 8.77419 21.4694 9.93266 20.6879 10.0218C20.6879 10.0218 19.8996 10.1109 19.0222 10.1589L24.2935 25.8359L25.7468 20.9758C26.3637 18.9605 26.8435 17.5141 26.8435 16.2665ZM17.2536 18.275L12.8802 30.9907C14.1895 31.3746 15.5673 31.5871 17 31.5871C18.7 31.5871 20.3246 31.2923 21.8395 30.7577C21.7984 30.696 21.7641 30.6274 21.7367 30.5589L17.2536 18.275ZM29.798 10.0012C29.8597 10.4673 29.894 10.9609 29.894 11.5024C29.894 12.9831 29.6198 14.6419 28.7835 16.7258L24.3278 29.606C28.6669 27.0766 31.5802 22.381 31.5802 17C31.5802 14.4637 30.9359 12.0782 29.798 10.0012ZM34 17C34 26.3774 26.3706 34 17 34C7.62258 34 0 26.3706 0 17C0 7.62258 7.62258 0 17 0C26.3706 0 34 7.62258 34 17ZM33.2185 17C33.2185 8.05444 25.9387 0.781452 17 0.781452C8.05444 0.781452 0.781452 8.05444 0.781452 17C0.781452 25.9456 8.06129 33.2185 17 33.2185C25.9456 33.2185 33.2185 25.9456 33.2185 17Z" fill="#212121"/>
</svg>
